<svg width="80" height="80" viewBox="0 0 80 80" fill="none" xmlns="http://www.w3.org/2000/svg">
<path d="M77.5073 53.9297C79.1612 49.4777 80 44.7909 80 40C80 29.3156 75.8394 19.2708 68.2842 11.7158C60.7292 4.16063 50.6844 0 40 0C29.3156 0 19.2708 4.16063 11.7158 11.7158C4.16063 19.2708 0 29.3156 0 40C0 50.6844 4.16063 60.7292 11.7158 68.2844C19.2708 75.8392 29.3156 80 40 80C44.7416 80 49.3825 79.1781 53.7942 77.5573C53.8731 77.5283 53.9472 77.492 54.0184 77.4522C56.6208 79.0664 59.6877 80 62.9688 80C72.3598 80 80 72.3598 80 62.9688C80 59.6944 79.0703 56.6334 77.4623 54.0344C77.478 54 77.4939 53.9658 77.5073 53.9297ZM40 76.875C19.667 76.875 3.125 60.333 3.125 40C3.125 19.667 19.667 3.125 40 3.125C60.333 3.125 76.875 19.667 76.875 40C76.875 43.7988 76.302 47.5247 75.1731 51.1027C74.1694 50.0706 73.0372 49.1644 71.8013 48.4117C74.7867 37.098 71.5595 25.0455 63.2572 16.743C57.8673 11.3531 50.7275 7.98547 43.1527 7.26016C35.6791 6.54422 28.1328 8.41547 21.9028 12.5284C21.1827 13.0037 20.9842 13.9731 21.4597 14.6931C21.935 15.4133 22.9044 15.6117 23.6244 15.1363C35.3539 7.39297 51.0925 8.99781 61.0472 18.9527C68.4145 26.3198 71.3623 36.95 68.9277 47.0144C67.0722 46.3189 65.0642 45.9375 62.9688 45.9375C53.5777 45.9375 45.9375 53.5777 45.9375 62.9688C45.9375 65.0655 46.3194 67.0744 47.0155 68.9311C44.6942 69.4925 42.3433 69.7683 40.008 69.7681C32.2202 69.7678 24.6169 66.7119 18.9525 61.0475C8.99844 51.0936 7.39297 35.3558 15.1347 23.6267C15.61 22.9066 15.4116 21.9372 14.6914 21.462C13.9713 20.9864 13.0019 21.1852 12.5267 21.9053C8.41469 28.1353 6.54422 35.6816 7.26 43.1541C7.98563 50.7284 11.3533 57.8678 16.7427 63.2573C23.0025 69.5172 31.4016 72.8939 40.0075 72.8933C42.8088 72.8931 45.6331 72.5339 48.4113 71.8009C49.1641 73.0372 50.0708 74.1698 51.1031 75.1738C47.525 76.3028 43.7981 76.875 40 76.875ZM62.9688 76.875C55.3008 76.875 49.0625 70.6367 49.0625 62.9688C49.0625 55.3008 55.3008 49.0625 62.9688 49.0625C70.6367 49.0625 76.875 55.3008 76.875 62.9688C76.875 70.6367 70.6367 76.875 62.9688 76.875Z" fill="#4C77B1"/>
<path d="M17.7516 19.5065C18.1533 19.5065 18.555 19.3526 18.8603 19.045L18.8936 19.0115L18.9032 19.002C19.5141 18.3926 19.5106 17.408 18.9011 16.797C18.2917 16.1861 17.2978 16.1895 16.6867 16.7989L16.6427 16.8431C16.0347 17.4555 16.0382 18.4448 16.6505 19.0528C16.9555 19.3553 17.3536 19.5065 17.7516 19.5065Z" fill="#4C77B1"/>
<path d="M63.2619 41.5916H65.4688C66.3317 41.5916 67.0313 40.892 67.0313 40.0291C67.0313 39.1661 66.3317 38.4666 65.4688 38.4666H63.2619C62.3989 38.4666 61.6994 39.1661 61.6994 40.0291C61.6994 40.892 62.3991 41.5916 63.2619 41.5916Z" fill="#4C77B1"/>
<path d="M18.3006 39.9709C18.3006 39.108 17.6011 38.4084 16.7381 38.4084H14.5312C13.6683 38.4084 12.9688 39.108 12.9688 39.9709C12.9688 40.8339 13.6683 41.5334 14.5312 41.5334H16.7381C17.6009 41.5334 18.3006 40.8339 18.3006 39.9709Z" fill="#4C77B1"/>
<path d="M40.0291 18.3006C40.892 18.3006 41.5916 17.6011 41.5916 16.7381V14.5312C41.5916 13.6683 40.892 12.9688 40.0291 12.9688C39.1661 12.9688 38.4666 13.6683 38.4666 14.5312V16.7381C38.4666 17.6009 39.1661 18.3006 40.0291 18.3006Z" fill="#4C77B1"/>
<path d="M39.9709 61.6995C39.108 61.6995 38.4084 62.3992 38.4084 63.262V65.4687C38.4084 66.3315 39.108 67.0312 39.9709 67.0312C40.8339 67.0312 41.5334 66.3315 41.5334 65.4687V63.262C41.5334 62.399 40.8339 61.6995 39.9709 61.6995Z" fill="#4C77B1"/>
<path d="M34.8466 37.0567C34.3487 37.925 34.0624 38.9295 34.0624 40.0001C34.0624 43.274 36.726 45.9376 39.9999 45.9376C43.2738 45.9376 45.9374 43.274 45.9374 40.0001C45.9374 38.9295 45.6512 37.925 45.1532 37.0567L57.5112 24.6987C58.1213 24.0886 58.1213 23.0992 57.5112 22.4889C56.901 21.8787 55.9116 21.8787 55.3013 22.4889L42.9434 34.8468C42.0751 34.349 41.0705 34.0626 39.9999 34.0626C38.9293 34.0626 37.9248 34.349 37.0565 34.8468L30.8704 28.6607C30.2602 28.0506 29.2709 28.0506 28.6606 28.6607C28.0502 29.2709 28.0504 30.2603 28.6606 30.8706L34.8466 37.0567ZM42.8124 40.0001C42.8124 41.5509 41.5507 42.8126 39.9999 42.8126C38.4491 42.8126 37.1874 41.5509 37.1874 40.0001C37.1874 38.4493 38.4491 37.1876 39.9999 37.1876C41.5507 37.1876 42.8124 38.4493 42.8124 40.0001Z" fill="#4C77B1"/>
<path d="M19.2086 55.9531C19.3558 56.1451 19.5054 56.3351 19.6573 56.5222C22.4075 59.9111 26.0073 62.5817 30.0681 64.2453C30.262 64.3247 30.4625 64.3623 30.6598 64.3623C31.2751 64.3623 31.8586 63.9962 32.1062 63.3917C32.4332 62.5931 32.0511 61.6806 31.2526 61.3534C27.6753 59.8879 24.5048 57.5364 22.0837 54.553C21.9501 54.3883 21.8186 54.2215 21.6892 54.0526C21.1644 53.3678 20.1836 53.2378 19.4986 53.7628C18.8134 54.2873 18.6836 55.2681 19.2086 55.9531Z" fill="#4C77B1"/>
<path d="M18.7764 49.0583L18.7258 48.9385C18.3914 48.143 17.4753 47.769 16.68 48.1035C15.8845 48.4379 15.5106 49.3538 15.845 50.1494L15.9009 50.2818C16.1539 50.8763 16.7317 51.233 17.3394 51.233C17.5434 51.233 17.7508 51.1927 17.9505 51.1079C18.7445 50.77 19.1144 49.8524 18.7764 49.0583Z" fill="#4C77B1"/>
<path d="M62.9626 56.8014C64.4245 56.8014 65.6138 57.8159 65.6138 59.0631C65.6138 59.9259 66.3134 60.6256 67.1763 60.6256C68.0393 60.6256 68.7388 59.9259 68.7388 59.0631C68.7388 56.5978 66.9531 54.5156 64.5251 53.8784V53.3857C64.5251 52.5229 63.8256 51.8232 62.9626 51.8232C62.0996 51.8232 61.4001 52.5229 61.4001 53.3857V53.8784C58.972 54.5156 57.1863 56.5979 57.1863 59.0631C57.1863 62.0334 59.7776 64.45 62.9626 64.45C64.4245 64.45 65.6138 65.4645 65.6138 66.7117C65.6138 67.9589 64.4245 68.9734 62.9626 68.9734C61.5007 68.9734 60.3113 67.9589 60.3113 66.7117C60.3113 65.8489 59.6118 65.1492 58.7488 65.1492C57.8859 65.1492 57.1863 65.8489 57.1863 66.7117C57.1863 69.177 58.9721 71.2592 61.4001 71.8964V72.2731C61.4001 73.1359 62.0996 73.8356 62.9626 73.8356C63.8256 73.8356 64.5251 73.1359 64.5251 72.2731V71.8964C66.9532 71.2592 68.7388 69.1768 68.7388 66.7117C68.7388 63.7414 66.1476 61.325 62.9626 61.325C61.5007 61.325 60.3113 60.3103 60.3113 59.0631C60.3113 57.8159 61.5007 56.8014 62.9626 56.8014Z" fill="#4C77B1"/>
</svg>
