<svg width="80" height="79" viewBox="0 0 80 79" fill="none" xmlns="http://www.w3.org/2000/svg">
<path d="M49.7548 39.377C48.5578 38.1911 46.7448 37.8822 45.2219 38.6047L43.1555 36.5541L45.9818 33.7178C47.5414 32.1581 47.5414 29.6315 45.9818 28.0719L45.0486 27.1264C46.8218 25.3421 47.8217 24.663 48.0483 22.9586C49.7079 23.2056 51.3872 22.6581 52.5811 21.4805L54.4743 19.5897C54.975 19.0902 55.2563 18.4123 55.2563 17.7055C55.2563 16.9987 54.975 16.3208 54.4743 15.8213L39.3825 0.774429C38.3425 -0.258143 36.6629 -0.258143 35.6229 0.774429L33.7298 2.65196C32.5468 3.84751 31.9983 5.53066 32.25 7.19266C31.3838 7.30541 30.5784 7.69825 29.9569 8.31119L9.22572 29.0173C8.5993 29.6468 8.20058 30.4666 8.0925 31.3476C6.43934 31.0902 4.76107 31.6226 3.55965 32.7857L1.67985 34.6765C0.646025 35.7153 0.646025 37.3928 1.67985 38.4316L16.7583 53.5051C17.2584 54.0052 17.937 54.2862 18.6447 54.2862C19.3524 54.2862 20.0311 54.0052 20.5312 53.5051L22.4243 51.6143C23.637 50.4204 24.1895 48.7103 23.9042 47.0336C25.6373 46.7939 26.3172 45.7952 28.0771 44.0375C29.1969 45.1561 29.9969 46.1414 31.85 46.1414C32.8982 46.1512 33.9083 45.7495 34.663 45.0229L37.4894 42.2L39.5425 44.2639C38.8191 45.785 39.1284 47.5958 40.3158 48.7913C52.9811 61.4147 18.6647 27.0599 68.6061 77.0475C71.2126 79.6508 75.4386 79.6508 78.0451 77.0475C80.6516 74.4441 80.6516 70.2232 78.0451 67.6199C18.8647 8.52424 76.192 65.769 49.7548 39.377ZM64.8465 69.5107L70.4993 63.8648L72.3791 65.7423L66.7263 71.3883L64.8465 69.5107ZM46.9284 51.6143L52.5811 45.9683L68.5795 61.9473L62.9267 67.5932L46.9284 51.6143ZM35.6229 4.54281L37.5027 2.65196L52.5811 17.7388L50.6614 19.603C50.1612 20.1031 49.4826 20.3841 48.7749 20.3841C48.0672 20.3841 47.3885 20.1031 46.8884 19.603L35.6229 8.31119C35.1222 7.81166 34.8409 7.13383 34.8409 6.427C34.8409 5.72017 35.1222 5.04233 35.6229 4.54281ZM20.5312 49.6968L18.6647 51.6143L3.55965 36.5541L5.45278 34.6765C5.95291 34.1764 6.63157 33.8955 7.33925 33.8955C8.04693 33.8955 8.72559 34.1764 9.22572 34.6765L20.5312 45.9683C21.5475 47.0039 21.5475 48.6612 20.5312 49.6968ZM24.3041 44.0509C23.7841 44.5671 22.9443 44.5671 22.4243 44.0509L14.8785 36.5141L17.7048 33.7178C17.9572 33.4678 18.0992 33.1274 18.0992 32.7724C18.0992 32.4173 17.9572 32.077 17.7048 31.8269C17.1848 31.3106 16.345 31.3106 15.825 31.8269L12.9987 34.6765C10.9189 32.5993 10.6656 32.546 10.6656 31.8402C10.667 31.4909 10.8059 31.1562 11.0522 30.9081L31.85 10.1887C32.37 9.67243 33.2098 9.67243 33.7298 10.1887L35.6229 12.0796L19.6246 28.0586C19.2496 28.4407 19.14 29.01 19.3465 29.5038C19.553 29.9977 20.0354 30.32 20.5712 30.3222C20.9256 30.3243 21.2662 30.1853 21.5178 29.9361L37.5161 13.9571L45.0619 21.4939C45.5788 22.0132 45.5788 22.852 45.0619 23.3714C45.1819 23.3714 44.8753 23.4912 24.3041 44.0908V44.0509ZM32.7832 43.1054C32.2632 43.6217 31.4234 43.6217 30.9034 43.1054L29.9569 42.16L43.1555 28.9773L44.102 29.9228C44.619 30.4421 44.619 31.2809 44.102 31.8003C38.7559 37.1799 44.9953 30.9747 32.7832 43.1454V43.1054ZM41.329 38.4316L43.1555 40.3757L41.329 42.2L39.3825 40.3757L41.329 38.4316ZM41.8756 45.9683C41.8771 45.6125 42.0211 45.272 42.2756 45.0229L46.0352 41.2679C46.2855 41.0158 46.6263 40.874 46.9817 40.874C47.3372 40.874 47.678 41.0158 47.9283 41.2679L50.6614 44.0908L45.0486 49.6968C41.9689 46.6741 41.8223 46.6874 41.8223 45.9683H41.8756ZM76.152 75.1566C74.5905 76.7143 72.0608 76.7143 70.4993 75.1566L68.6061 73.2791L74.2722 67.6199L76.152 69.5107C77.7116 71.0704 77.7116 73.597 76.152 75.1566Z" fill="#4C77B1"/>
<path d="M33.3298 69.6704V68.3388C33.3298 65.3971 30.9422 63.0125 27.997 63.0125H9.33235C6.38714 63.0125 3.99958 65.3971 3.99958 68.3388V69.6704C1.79067 69.6704 0 71.4589 0 73.6651V77.6598C0 78.3952 0.59689 78.9914 1.33319 78.9914H35.9962C36.7325 78.9914 37.3294 78.3952 37.3294 77.6598V73.6651C37.3294 71.4589 35.5387 69.6704 33.3298 69.6704ZM6.66596 68.3388C6.66596 66.868 7.85974 65.6756 9.33235 65.6756H27.997C29.4696 65.6756 30.6634 66.868 30.6634 68.3388V69.6704H6.66596V68.3388ZM34.663 76.3283H2.66638V73.6651C2.66638 72.9297 3.26327 72.3335 3.99958 72.3335H33.3298C34.0661 72.3335 34.663 72.9297 34.663 73.6651V76.3283Z" fill="#4C77B1"/>
<path d="M33.3301 57.6862V52.3599C33.3301 51.6245 32.7332 51.0283 31.9968 51.0283C31.2604 51.0283 30.6635 51.6245 30.6635 52.3599V57.6862C30.6635 58.4216 31.2604 59.0178 31.9968 59.0178C32.7332 59.0178 33.3301 58.4216 33.3301 57.6862Z" fill="#4C77B1"/>
<path d="M42.6629 61.6812H37.3295C36.5932 61.6812 35.9962 62.2773 35.9962 63.0127C35.9962 63.7481 36.5932 64.3443 37.3295 64.3443H42.6629C43.3992 64.3443 43.9962 63.7481 43.9962 63.0127C43.9962 62.2773 43.3992 61.6812 42.6629 61.6812Z" fill="#4C77B1"/>
<path d="M36.9429 59.9632L40.9429 55.9685C41.4658 55.4463 41.4658 54.5998 40.9429 54.0776C40.4201 53.5555 39.5724 53.5555 39.0496 54.0776L35.0496 58.0724C34.665 58.4533 34.5494 59.0288 34.7571 59.5284C34.9648 60.0281 35.4546 60.3525 35.9963 60.3494C36.3507 60.3514 36.6913 60.2125 36.9429 59.9632Z" fill="#4C77B1"/>
</svg>
