<svg width="80" height="75" viewBox="0 0 80 75" fill="none" xmlns="http://www.w3.org/2000/svg">
<path d="M78.828 63.446C78.1806 63.446 77.6561 63.9711 77.6561 64.6189V72.4564C77.6561 72.5652 77.5677 72.6539 77.4588 72.6539H73.006V55.5165C73.006 54.8688 72.4814 54.3436 71.8341 54.3436C71.1868 54.3436 70.6622 54.8688 70.6622 55.5165V72.6541H62.0576L64.3865 70.0896C64.7462 69.6935 64.9157 69.1309 64.8402 68.5846C64.8385 68.5729 64.8368 68.5613 64.8347 68.5496L62.2168 53.0671L62.6985 52.3412L62.824 52.4304C63.2535 52.7358 63.8013 52.8472 64.3313 52.7147C64.8518 52.5844 65.2879 52.234 65.5276 51.7535V51.7533L68.1915 46.4092L74.2766 48.7681C74.5167 48.8725 77.6555 50.3131 77.6555 54.0613V59.1448C77.6556 59.7927 78.1802 60.3179 78.8275 60.3179C79.4748 60.3179 79.9994 59.7927 79.9994 59.1449V54.0614C79.9994 48.6486 75.3611 46.6778 75.1638 46.5965C75.1563 46.5934 75.1489 46.5904 75.1414 46.5876L64.7794 42.5707V40.4344C66.3969 39.1319 67.5329 37.2547 67.874 35.1147C68.6807 35.0134 69.4291 34.6901 70.0502 34.1554C70.9408 33.3888 71.4519 32.2732 71.4519 31.0951C71.4519 30.1546 71.1258 29.2547 70.5419 28.54V25.3749C70.5419 19.1807 65.5072 14.1414 59.3191 14.1414C56.5409 14.1414 53.9971 15.1593 52.0351 16.8393C52.0098 15.9405 51.6884 15.084 51.1282 14.3984V11.2334C51.1282 5.03922 46.0936 0 39.9055 0C33.7171 0 28.6825 5.03938 28.6825 11.2334V14.481C28.1193 15.1547 27.8041 15.9671 27.7763 16.8293C26.5244 15.7584 25.0262 14.9522 23.3563 14.5121C22.7294 14.347 22.0893 14.7212 21.9244 15.3477C21.7596 15.9743 22.1334 16.6159 22.7593 16.7809C26.6519 17.8069 29.3707 21.341 29.3707 25.3747V27.129C29.32 27.1185 29.1575 27.0905 29.1513 27.0896C29.1354 26.7585 29.0516 26.5563 28.8713 26.2967C28.5713 25.8652 28.0325 25.3277 26.2997 23.4634C25.6822 22.7995 24.6835 22.6777 23.9254 23.1738C20.9574 25.1143 17.3517 26.1034 14.0054 25.9068C12.9154 25.8428 12.2346 26.3222 11.9445 27.1077C11.9185 27.112 11.6287 27.1705 11.6126 27.1744V25.3747C11.6126 21.4853 14.2092 17.9863 17.9268 16.8654C18.5465 16.6787 18.8976 16.0243 18.711 15.4039C18.5243 14.7835 17.8696 14.432 17.2507 14.6191C14.9898 15.3007 12.9574 16.7198 11.5285 18.6147C10.05 20.5749 9.26856 22.9126 9.26856 25.3749V28.6226C8.67825 29.3286 8.35903 30.1865 8.35903 31.0951C8.35903 33.1032 9.83715 34.8545 11.9431 35.1157C12.2881 37.2056 13.4209 39.2098 15.2087 40.5725V42.5714L4.85826 46.5879C4.85092 46.5907 4.84357 46.5937 4.83623 46.5967C4.63842 46.6778 0 48.6484 0 54.0613V72.4564C0 73.8591 1.14 75 2.5414 75H38.6305C39.1348 75 39.6041 74.8503 40 74.5957C40.3956 74.8503 40.865 75 41.3695 75H77.4588C78.86 75 80 73.8591 80 72.4564V64.6189C79.9998 63.9711 79.4753 63.446 78.828 63.446ZM11.8284 32.692C11.1414 32.4424 10.7025 31.8063 10.7025 31.0947C10.7025 30.4046 11.2025 29.8375 11.8284 29.5683V32.692ZM65.9965 45.5582L63.6962 50.1728C63.6958 50.1725 61.141 48.3563 61.1048 48.3305C62.2069 46.9686 61.6891 47.6084 63.981 44.777L65.9965 45.5582ZM59.4107 46.6965L56.3799 42.9519V41.8266C57.3651 42.1676 58.4263 42.3249 59.4252 42.3252C59.4254 42.3252 59.4257 42.3252 59.4259 42.3252H59.426C60.4588 42.325 61.5044 42.1288 62.4357 41.778V42.9591L59.4107 46.6965ZM60.7866 50.9822L60.3555 51.6317H58.4663L58.0352 50.9822L59.411 50.0042L60.7866 50.9822ZM39.9969 32.5548L36.9661 28.8103V27.685C37.9474 28.0245 39.0075 28.1833 40.0114 28.1836C40.0116 28.1836 40.0119 28.1836 40.012 28.1836H40.0122C41.0431 28.1836 42.0886 27.9879 43.0219 27.6365V28.8175L39.9969 32.5548ZM41.3727 36.8409L40.9416 37.4904H39.0523L38.6213 36.8409L39.997 35.8629L41.3727 36.8409ZM30.7683 20.8616C30.9599 20.9139 31.1568 20.9494 31.3566 20.9741C31.7016 23.064 32.8344 25.0682 34.6222 26.4309V28.4298L32.2314 29.3573C32.0928 29.066 31.9196 28.7915 31.7139 28.5399V25.3749C31.7139 23.7831 31.3789 22.2529 30.7683 20.8616ZM46.2242 19.6195C46.2242 23.0529 43.4261 25.8372 40.0122 25.8372C36.1605 25.8372 33.5864 22.8492 33.5864 19.6195V14.125C37.2869 14.2733 41.1311 13.1756 44.274 11.2175C45.3308 12.3517 45.9595 13.0106 46.2243 13.3165C46.2242 16.2368 46.2242 17.3645 46.2242 19.6195ZM48.4603 20.9733C48.659 20.9483 48.855 20.9126 49.0454 20.8605C48.4367 22.2431 48.0961 23.7695 48.0961 25.3749V28.6224C47.9159 28.8378 47.7609 29.0672 47.6326 29.3079L45.3658 28.4293V26.2929C46.9831 24.9903 48.1192 23.1131 48.4603 20.9733ZM35.4225 30.6373L38.2994 34.1915L36.3375 35.5863C36.3364 35.587 36.3356 35.5878 36.3345 35.5886L35.7119 36.0314L33.4114 31.4169L35.4225 30.6373ZM42.6941 32.9494L44.567 30.6354L46.5825 31.4166L44.2823 36.0314L43.6583 35.5878C43.6576 35.5874 43.657 35.5867 43.6564 35.5863L41.6909 34.1889L42.6941 32.9494ZM43.2847 38.1998L43.4101 38.2889C43.8483 38.6005 44.3981 38.7034 44.9175 38.5733C45.4379 38.443 45.874 38.0925 46.1137 37.6121V37.6119L48.0915 33.6443C48.7711 34.4826 49.7539 34.9924 50.766 35.119C51.1236 37.3617 52.3346 39.2756 54.0362 40.5725V42.5712L44.0731 46.4375L42.8028 38.9258L43.2847 38.1998ZM54.8363 44.7787L57.7132 48.333C56.4554 49.2274 55.1909 50.1265 55.1257 50.1728L52.8253 45.5584L54.8363 44.7787ZM65.6379 33.7611C65.6382 37.1107 62.9205 39.9788 59.426 39.9788C55.4429 39.9788 53.0003 36.8562 53.0003 33.7611V28.2666C56.6743 28.4135 60.5235 27.3303 63.6877 25.3591C64.7444 26.4933 65.3732 27.1522 65.638 27.4581C65.6379 30.3783 65.6379 31.5061 65.6379 33.7611ZM69.1082 31.0949C69.1082 31.8077 68.6679 32.4426 67.9822 32.692V29.5011C68.691 29.7594 69.1082 30.4077 69.1082 31.0949ZM50.44 25.3747C50.44 20.4742 54.4232 16.4874 59.319 16.4874C64.2149 16.4874 68.1979 20.4744 68.1979 25.3747V27.129C68.1446 27.1179 67.998 27.0926 67.9785 27.0896C67.9625 26.7582 67.8783 26.5555 67.6985 26.2967C67.3905 25.8539 66.8577 25.3256 65.1269 23.4634C64.5226 22.8141 63.526 22.6678 62.7526 23.1738C59.8651 25.0618 56.217 26.1282 52.7456 25.9026C51.7704 25.8386 51.064 26.3165 50.7717 27.1079C50.7456 27.1121 50.4562 27.1706 50.4398 27.1745V25.3747H50.44ZM50.6564 29.5685V32.6904C49.9673 32.4418 49.5304 31.804 49.5304 31.0947C49.5303 30.4046 50.03 29.8378 50.6564 29.5685ZM49.694 16.9534C49.694 17.4473 49.4804 17.9145 49.1081 18.235C48.9482 18.3726 48.7661 18.4783 48.5681 18.5504V15.3595C49.2689 15.6141 49.694 16.2589 49.694 16.9534ZM39.905 2.34593C44.8009 2.34593 48.784 6.33277 48.784 11.2333V12.9876C48.7311 12.9766 48.5842 12.9511 48.5647 12.9482C48.5473 12.5889 48.4439 12.3681 48.2328 12.0823C47.919 11.6573 47.3406 11.0728 45.7131 9.32181C45.0986 8.66135 44.1005 8.53388 43.3387 9.03216C40.2894 11.0262 36.5902 11.9966 33.2372 11.7563C32.4169 11.6942 31.6446 12.1903 31.358 12.9661C31.3319 12.9704 31.0424 13.0289 31.0261 13.0328V11.2334H31.026C31.026 6.33277 35.0092 2.34593 39.905 2.34593ZM31.2422 15.4269V18.5506C30.5552 18.301 30.1163 17.6649 30.1163 16.9533C30.1163 16.267 30.6124 15.6979 31.2422 15.4269ZM29.1541 29.5011C29.8097 29.7399 30.2308 30.3124 30.2725 30.9929C30.325 31.7496 29.8605 32.4338 29.1541 32.6906V29.5011ZM29.0455 35.1186C30.1508 34.9802 31.1653 34.3972 31.8307 33.5003L33.8803 37.6119C33.8803 37.6119 33.8803 37.6119 33.8805 37.6121C34.12 38.0927 34.5561 38.443 35.0766 38.5733C35.5911 38.702 36.1416 38.6035 36.5839 38.2889L36.7094 38.1998L37.1911 38.9256L35.9213 46.4353L25.9519 42.5706V40.4352H25.9518C27.6116 39.0956 28.7124 37.2029 29.0455 35.1186ZM20.5827 46.6965L17.552 42.9519V41.8266C18.5332 42.1661 19.5935 42.3249 20.5974 42.325C20.5976 42.325 20.5979 42.325 20.598 42.325C21.6459 42.325 22.6896 42.1236 23.6077 41.778V42.9591L20.5827 46.6965ZM21.9587 50.9822L21.5276 51.6317H19.6384L19.2073 50.9822L20.583 50.0042L21.9587 50.9822ZM25.1529 44.777L27.1685 45.5584L24.8682 50.1728L24.2441 49.7293C24.2435 49.7288 24.2429 49.7282 24.2422 49.7277L22.2768 48.3305L25.1529 44.777ZM14.1723 33.7611V28.2666C17.8924 28.4154 21.7391 27.3031 24.8597 25.3591C25.9065 26.4826 26.5449 27.1518 26.8101 27.4581C26.8101 30.3784 26.8101 31.5062 26.8101 33.7611C26.8101 37.1726 24.0312 39.9788 20.598 39.9788C16.7757 39.9788 14.1723 37.0249 14.1723 33.7611ZM16.0085 44.7787L18.8854 48.333L16.9235 49.7277C16.9224 49.7285 16.9217 49.7293 16.9206 49.7301L16.2979 50.1728L13.9974 45.5584L16.0085 44.7787ZM9.33793 72.6542V55.5165C9.33793 54.8688 8.8134 54.3436 8.16606 54.3436C7.51872 54.3436 6.99419 54.8688 6.99419 55.5165V72.6541H2.5414C2.43233 72.6541 2.3439 72.5654 2.3439 72.4565V54.0613C2.3439 50.2939 5.51529 48.8578 5.7206 48.769L11.802 46.4092L14.4662 51.7533C14.4662 51.7533 14.4662 51.7534 14.4663 51.7535C14.7059 52.2341 15.142 52.5844 15.6626 52.7147C16.1771 52.8434 16.7276 52.7449 17.1699 52.4304L17.2954 52.3412L17.7771 53.0671L15.1592 68.5496C15.1571 68.5612 15.1554 68.5729 15.1537 68.5846C15.0784 69.1306 15.2479 69.6932 15.6078 70.09L17.9363 72.6541H9.33793V72.6542ZM17.5113 68.6979L20.0002 53.9778H21.1657L23.6548 68.6979L20.583 72.0803L17.5113 68.6979ZM38.8278 72.4564C38.8278 72.5654 38.7394 72.6541 38.6305 72.6541H34.178V55.5165C34.178 54.8688 33.6535 54.3436 33.0061 54.3436C32.3588 54.3436 31.8343 54.8688 31.8343 55.5165V72.6541H23.2296L25.5585 70.0896C25.9182 69.6935 26.0877 69.1309 26.0122 68.5846C26.0105 68.5729 26.0088 68.5613 26.0068 68.5496L23.3888 53.0671L23.8705 52.3412L23.996 52.4304C24.3096 52.6534 24.6808 52.7698 25.0576 52.7698C25.7449 52.7698 26.3851 52.3843 26.6997 51.7535V51.7533L29.3636 46.4093L35.4488 48.7682C37.2225 49.5405 38.8277 51.5322 38.8277 54.0613V72.4564H38.8278ZM39.9998 49.7989C39.5144 49.016 38.8681 48.2915 38.0891 47.6733L39.4142 39.8365H40.5797L41.9055 47.6774C41.1056 48.3131 40.4678 49.0441 39.9998 49.7989ZM48.1657 72.6542V55.5165C48.1657 54.8688 47.6412 54.3436 46.9939 54.3436C46.3465 54.3436 45.822 54.8688 45.822 55.5165V72.6541H41.3694C41.2605 72.6541 41.1719 72.5654 41.1719 72.4565V54.0613C41.1719 52.6669 41.6087 51.3825 42.5394 50.3036C43.1598 49.5912 43.9828 49.0144 44.5487 48.769L50.6301 46.409L53.2943 51.7533C53.2943 51.7533 53.2943 51.7534 53.2945 51.7535C53.534 52.2341 53.9701 52.5844 54.4906 52.7147C55.0051 52.8434 55.5556 52.7449 55.9979 52.4304L56.1234 52.3412L56.6051 53.0671L53.9871 68.5496C53.9851 68.5612 53.9834 68.5729 53.9817 68.5846C53.9064 69.1306 54.0759 69.6932 54.4357 70.09L56.7643 72.6541H48.1657V72.6542ZM56.3392 68.698L58.8282 53.9779H59.9937L62.4827 68.698L59.4109 72.0804L56.3392 68.698Z" fill="#4C77B1"/>
</svg>
