<svg width="80" height="80" viewBox="0 0 80 80" fill="none" xmlns="http://www.w3.org/2000/svg">
<path d="M79.9999 66.8077V57.0622L76.2669 56.1084C76.2411 56.0454 76.2153 55.9823 76.1882 55.92L78.1533 52.6079L71.2619 45.7165L67.9498 47.6816C67.8861 47.6545 67.8231 47.6287 67.7614 47.6028L66.8075 43.8711H57.0621L56.1082 47.6041C56.0452 47.6299 55.9822 47.6557 55.9198 47.6828L52.6077 45.7177L45.7163 52.6091L47.6814 55.9212C47.6543 55.9849 47.6285 56.0479 47.6026 56.1096L43.8709 57.0635V66.8089L47.6039 67.7628C47.6297 67.8258 47.6556 67.8888 47.6827 67.9512L45.7176 71.2633L52.6089 78.1547L55.921 76.1896C55.9847 76.2167 56.0477 76.2425 56.1094 76.2684L57.0633 80.0001H66.8088L67.7626 76.2671C67.8256 76.2413 67.8887 76.2154 67.951 76.1883L71.2631 78.1534L78.1545 71.2621L76.1894 67.9499C76.2165 67.8863 76.2423 67.8233 76.2682 67.7616L79.9999 66.8077ZM74.9123 70.8557L70.8555 74.9125L68.0978 73.2763L67.4772 73.5731C67.0772 73.7627 66.6683 73.9341 66.2474 74.0828L65.5972 74.3134L64.8052 77.4194H59.0668L58.2749 74.3134L57.6247 74.0828C57.2038 73.9353 56.7937 73.764 56.3948 73.5731L55.7743 73.2763L53.0166 74.9125L48.9597 70.8557L50.596 68.098L50.2992 67.4774C50.1096 67.0773 49.9382 66.6684 49.7895 66.2476L49.5589 65.5974L46.4516 64.8054V59.067L49.5576 58.2751L49.7882 57.6249C49.9357 57.204 50.107 56.7938 50.2979 56.395L50.5947 55.7744L48.9585 53.0167L53.0153 48.9599L55.773 50.5961L56.3936 50.2994C56.7937 50.1097 57.2025 49.9384 57.6234 49.7897L58.2736 49.5591L59.0656 46.4517H64.804L65.5959 49.5578L66.2461 49.7884C66.667 49.9359 67.0772 50.1072 67.476 50.2981L68.0966 50.5949L70.8542 48.9587L74.9111 53.0155L73.2749 55.7732L73.5716 56.3938C73.7613 56.7938 73.9326 57.2027 74.0813 57.6236L74.3119 58.2738L77.4193 59.0658V64.8042L74.3132 65.5961L74.0826 66.2463C73.9351 66.6672 73.7638 67.0773 73.5729 67.4762L73.2761 68.0967L74.9123 70.8557Z" fill="#4C77B1"/>
<path d="M61.9354 51.6128C56.2436 51.6128 51.6128 56.2436 51.6128 61.9354C51.6128 67.6271 56.2436 72.2579 61.9354 72.2579C67.6271 72.2579 72.2579 67.6271 72.2579 61.9354C72.2579 56.2436 67.6271 51.6128 61.9354 51.6128ZM61.9354 69.6773C57.6656 69.6773 54.1934 66.2051 54.1934 61.9354C54.1934 57.6656 57.6656 54.1934 61.9354 54.1934C66.2051 54.1934 69.6773 57.6656 69.6773 61.9354C69.6773 66.2051 66.2051 69.6773 61.9354 69.6773Z" fill="#4C77B1"/>
<path d="M61.9354 56.7739C59.0889 56.7739 56.7741 59.0887 56.7741 61.9352C56.7741 64.7817 59.0889 67.0965 61.9354 67.0965C64.7819 67.0965 67.0967 64.7817 67.0967 61.9352C67.0967 59.0887 64.7819 56.7739 61.9354 56.7739ZM61.9354 64.5159C60.5122 64.5159 59.3548 63.3585 59.3548 61.9352C59.3548 60.512 60.5122 59.3546 61.9354 59.3546C63.3587 59.3546 64.5161 60.512 64.5161 61.9352C64.5161 63.3585 63.3587 64.5159 61.9354 64.5159Z" fill="#4C77B1"/>
<path d="M32.6776 21.8479C33.1098 23.1149 33.8621 24.232 34.8386 25.1096V26.204L28.7033 28.5043C26.1989 29.4424 24.5161 31.8699 24.5161 34.5444V41.2903H55.4838V34.5444C55.4838 31.8699 53.8009 29.4424 51.2978 28.503L45.1612 26.2027V25.1096C46.1377 24.2332 46.89 23.1162 47.3222 21.8479C49.7535 21.4308 51.6128 19.3214 51.6128 16.7742V11.6129C51.6128 5.21043 46.4036 0 39.9999 0C33.5962 0 28.387 5.21043 28.387 11.6129V16.7742C28.387 19.3214 30.2463 21.4308 32.6776 21.8479ZM42.5805 26.7395L39.9999 31.0402L37.4193 26.7395V26.645C38.2282 26.9329 39.0939 27.0967 39.9999 27.0967C40.9059 27.0967 41.7716 26.9317 42.5805 26.645V26.7395ZM35.5751 28.6826L38.1766 33.0166L35.5921 34.3082L33.9225 29.3019L35.5751 28.6826ZM52.9031 34.5444V38.7096H27.0967V34.5444C27.0967 32.9391 28.106 31.4837 29.6087 30.9198L31.5057 30.2091L34.0851 37.9485L39.9999 34.9911L45.9147 37.9485L48.4941 30.2091L50.3924 30.9211C51.8938 31.4837 52.9031 32.9391 52.9031 34.5444ZM46.0773 29.3019L44.4077 34.3094L41.8232 33.0179L44.4247 28.6826L46.0773 29.3019ZM39.9999 24.5161C37.1534 24.5161 34.8386 22.2013 34.8386 19.3548V14.106C36.7275 13.9069 38.5099 13.2182 39.9999 12.0464C41.4899 13.2195 43.2723 13.9069 45.1612 14.106V19.3548C45.1612 22.2013 42.8464 24.5161 39.9999 24.5161ZM47.7418 18.9963V14.5533C48.5098 15.0012 49.0322 15.8247 49.0322 16.7754C49.0322 17.7262 48.5098 18.5484 47.7418 18.9963ZM39.9999 2.58064C44.9791 2.58064 49.0322 6.63243 49.0322 11.6129V12.3305C48.2698 11.8863 47.3959 11.6129 46.4515 11.6129H46.2297C44.2205 11.6129 42.3317 10.831 40.9122 9.41027L39.9999 8.49671L39.0876 9.41027C37.6669 10.831 35.7793 11.6129 33.7701 11.6129H33.5483C32.6039 11.6129 31.73 11.8863 30.9677 12.3305V11.6129C30.9677 6.63243 35.0207 2.58064 39.9999 2.58064ZM32.258 14.552V18.9951C31.49 18.5471 30.9677 17.7236 30.9677 16.7729C30.9677 15.8222 31.49 15 32.258 14.552Z" fill="#4C77B1"/>
<path d="M0 80H25.8064V46.4517H0V80ZM2.58064 49.0323H23.2258V77.4194H2.58064V49.0323Z" fill="#4C77B1"/>
<path d="M5.16132 51.6128H20.6452V54.1934H5.16132V51.6128Z" fill="#4C77B1"/>
<path d="M5.16132 56.7739H7.74196V59.3546H5.16132V56.7739Z" fill="#4C77B1"/>
<path d="M10.3226 56.7739H20.6451V59.3546H10.3226V56.7739Z" fill="#4C77B1"/>
<path d="M5.16132 61.9355H20.6452V64.5162H5.16132V61.9355Z" fill="#4C77B1"/>
<path d="M5.16132 67.0967H20.6452V69.6773H5.16132V67.0967Z" fill="#4C77B1"/>
<path d="M18.0645 72.2581H20.6451V74.8387H18.0645V72.2581Z" fill="#4C77B1"/>
<path d="M5.16132 72.2581H15.4839V74.8387H5.16132V72.2581Z" fill="#4C77B1"/>
<path d="M34.4606 57.6864L32.6361 55.8618L26.5625 61.9354L32.6361 68.009L34.4606 66.1844L31.502 63.2257H41.2903V60.6451H31.502L34.4606 57.6864Z" fill="#4C77B1"/>
<path d="M14.1935 20.6452C14.1935 19.9345 14.7719 19.3549 15.4838 19.3549H21.4012L18.4425 22.3135L20.2671 24.1381L26.3407 18.0645L20.2671 11.991L18.4425 13.8156L21.4012 16.7742H15.4838C13.3499 16.7742 11.6129 18.5112 11.6129 20.6452V43.871H14.1935V20.6452Z" fill="#4C77B1"/>
<path d="M61.9354 20.6454V36.8853L58.9767 33.9266L57.1521 35.7512L63.2257 41.8248L69.2993 35.7512L67.4747 33.9266L64.5161 36.8853V20.6454C64.5161 18.5114 62.779 16.7744 60.6451 16.7744H54.1935V19.3551H60.6451C61.357 19.3551 61.9354 19.9347 61.9354 20.6454Z" fill="#4C77B1"/>
</svg>
