<svg width="18" height="18" viewBox="0 0 18 18" fill="none" xmlns="http://www.w3.org/2000/svg">
<path fill-rule="evenodd" clip-rule="evenodd" d="M16 9.83349C16 9.28149 16.448 8.83349 17 8.83349C17.552 8.83349 18 9.28149 18 9.83349V15.3995C18 16.8335 16.833 18.0005 15.4 18.0005H2.6C1.167 18.0005 0 16.8335 0 15.3995V2.60049C0 1.16649 1.167 0.000488281 2.6 0.000488281H12.167C12.719 0.000488281 13.167 0.447488 13.167 1.00049C13.167 1.55249 12.719 2.00049 12.167 2.00049H2.6C2.269 2.00049 2 2.26949 2 2.60049V15.3995C2 15.7305 2.269 16.0005 2.6 16.0005H15.4C15.731 16.0005 16 15.7305 16 15.3995V9.83349ZM6.3096 7.94649C6.7096 7.56449 7.3416 7.58049 7.7236 7.97949L9.2286 9.55749L15.2816 3.30449C15.6646 2.90849 16.2976 2.89649 16.6956 3.28149C17.0926 3.66549 17.1026 4.29849 16.7186 4.69549L9.9416 11.6955C9.7536 11.8905 9.4946 12.0005 9.2236 12.0005H9.2196C8.9476 11.9995 8.6876 11.8875 8.4996 11.6905L6.2766 9.36049C5.8946 8.96049 5.9106 8.32749 6.3096 7.94649Z" fill="#0F4C81"/>
</svg>
