<svg width="32" height="32" viewBox="0 0 32 32" fill="none" xmlns="http://www.w3.org/2000/svg">
<g id="load-more">
<path id="Mask" fill-rule="evenodd" clip-rule="evenodd" d="M28.9105 13.7681C28.9009 13.7893 28.8912 13.8104 28.8821 13.832C28.873 13.8543 28.8658 13.8776 28.8586 13.9009C28.8469 13.9387 28.8353 13.9763 28.8155 14.0093C28.7761 14.0747 28.7245 14.1296 28.6728 14.1846C28.6581 14.2003 28.6433 14.216 28.6288 14.232C28.6127 14.2487 28.5984 14.267 28.5841 14.2853C28.5642 14.3108 28.5443 14.3364 28.5195 14.3573C28.4448 14.4183 28.3585 14.4607 28.2725 14.503C28.2664 14.506 28.2603 14.509 28.2542 14.512C28.236 14.5208 28.2187 14.5319 28.2014 14.543C28.1768 14.5588 28.1522 14.5746 28.1248 14.584C27.9808 14.6373 27.8275 14.6667 27.6688 14.6667C27.5968 14.6667 27.5222 14.6613 27.4488 14.648L21.7822 13.708C21.0555 13.588 20.5648 12.9013 20.6848 12.1747C20.8048 11.4493 21.4901 10.952 22.2181 11.0787L24.4102 11.4413C22.7501 8.52667 19.5808 6.66667 16.0928 6.66667C12.1475 6.66667 8.67148 8.95733 7.23548 12.5C7.02615 13.02 6.52615 13.3333 5.99948 13.3333C5.83281 13.3333 5.66348 13.3027 5.49948 13.236C4.81681 12.96 4.48748 12.1827 4.76481 11.5C6.61015 6.944 11.0568 4 16.0928 4C20.6421 4 24.7768 6.49333 26.8635 10.384L27.3555 7.75333C27.4915 7.03067 28.1902 6.552 28.9115 6.69067C29.6355 6.82533 30.1128 7.52267 29.9768 8.24667L28.9781 13.58C28.9653 13.648 28.9379 13.708 28.9105 13.7681ZM24.7647 19.5003C25.0407 18.8163 25.8193 18.4883 26.5007 18.7643C27.1833 19.0403 27.5127 19.8176 27.2353 20.5003C25.39 25.0563 20.9433 28.0003 15.9073 28.0003C11.358 28.0003 7.22334 25.507 5.13667 21.6163L4.64334 24.2456C4.52467 24.887 3.96467 25.3336 3.33401 25.3336C3.25267 25.3336 3.17001 25.3256 3.08734 25.3096C2.36334 25.175 1.88734 24.4776 2.02334 23.7536L3.02201 18.4203C3.03214 18.3679 3.05458 18.3214 3.07713 18.2747C3.09018 18.2477 3.10325 18.2206 3.11401 18.1923C3.12455 18.1657 3.13376 18.1382 3.14298 18.1107C3.16292 18.0511 3.18294 17.9913 3.21667 17.9403C3.23635 17.9099 3.26208 17.8857 3.28797 17.8612C3.30418 17.8459 3.32045 17.8306 3.33534 17.8136C3.34708 17.8 3.3587 17.7863 3.37029 17.7727C3.43375 17.6979 3.49663 17.6237 3.57667 17.5696C3.58453 17.5639 3.59393 17.5605 3.60321 17.5571C3.61124 17.5542 3.6192 17.5513 3.62601 17.547C3.75534 17.463 3.89401 17.3976 4.04734 17.3643C4.05668 17.3621 4.0664 17.3627 4.0761 17.3632C4.0844 17.3637 4.09268 17.3642 4.10067 17.363C4.24734 17.339 4.39534 17.3243 4.55134 17.351L10.218 18.2923C10.9447 18.411 11.4353 19.099 11.3153 19.8256C11.2073 20.4776 10.642 20.9403 10.0007 20.9403C9.92867 20.9403 9.85534 20.935 9.78201 20.9216L7.59001 20.559C9.25001 23.4736 12.4193 25.3336 15.9073 25.3336C19.8527 25.3336 23.3287 23.043 24.7647 19.5003Z" fill="white"/>
</g>
</svg>
