<svg width="64" height="64" viewBox="0 0 64 64" fill="none" xmlns="http://www.w3.org/2000/svg">
<path d="M34.7802 31.4743C34.6058 31.2166 34.3151 31.0623 34.0039 31.0623H31.3806L32.8703 27.3379C33.0627 26.8572 32.8288 26.3116 32.3481 26.1193C31.8672 25.9266 31.3217 26.1608 31.1294 26.6416L29.1254 31.6517C29.0099 31.9406 29.045 32.268 29.2195 32.5255C29.3939 32.7831 29.6848 32.9373 29.9958 32.9373H32.6192L31.1294 36.6617C30.9371 37.1425 31.1709 37.6881 31.6517 37.8804C31.7659 37.9261 31.8837 37.9477 31.9996 37.9477C32.3717 37.9477 32.7237 37.7247 32.8703 37.3582L34.8743 32.3481C34.9898 32.0592 34.9547 31.7318 34.7802 31.4743Z" fill="#0F4C81"/>
<path d="M58.8306 5.37018C55.501 1.98805 51.0627 0.0817945 46.3334 0.00254431C41.6141 -0.0779559 37.109 1.75417 33.6486 5.15705C30.0947 8.65181 28.0566 13.4871 28.0566 18.4227V22.0442H24.9861C23.3641 22.0442 22.0446 23.3638 22.0446 24.9857V39.0139C22.0446 40.6359 23.3642 41.9554 24.9861 41.9554H28.0566V46.028C28.0566 48.8563 26.8527 51.5744 24.7534 53.4853C22.6273 55.4207 19.8723 56.3374 16.9973 56.0668C11.8888 55.5859 7.88728 51.0345 7.88728 45.7051C7.88728 45.1874 7.46753 44.7676 6.94978 44.7676C6.43203 44.7676 6.01228 45.1874 6.01228 45.7051C6.01228 48.7286 7.10216 51.6453 9.08104 53.9178C11.0918 56.2268 13.8408 57.6529 16.8216 57.9334C17.2131 57.9703 17.6023 57.9885 17.9891 57.9885C20.9692 57.9885 23.7839 56.9033 26.0157 54.8718C28.5043 52.6063 29.9317 49.3829 29.9317 46.028V41.9554H34.0688V45.5769C34.0688 50.0133 32.2348 54.3612 29.0371 57.5057C25.9379 60.5533 21.9131 62.1929 17.6984 62.1223C13.4635 62.0514 9.48854 60.3438 6.50603 57.314C3.5199 54.2808 1.87552 50.2726 1.87552 46.0279V33.0019C1.87552 32.9662 1.9044 32.9374 1.94002 32.9374H5.94803C5.98366 32.9374 6.01253 32.9662 6.01253 33.0019V41.6443C6.01253 42.162 6.43228 42.5818 6.95003 42.5818C7.46778 42.5818 7.88753 42.162 7.88753 41.6443V33.0019C7.88753 31.9324 7.01753 31.0624 5.94803 31.0624H4.8814V25.9877C4.8814 25.47 4.46165 25.0502 3.9439 25.0502C3.42615 25.0502 3.0064 25.47 3.0064 25.9877V31.0624H1.9399C0.870396 31.0624 0.00039375 31.9324 0.00039375 33.0019V46.0279C0.00039375 50.768 1.83627 55.2434 5.16978 58.6294C8.49941 62.0115 12.9377 63.9179 17.6671 63.997C17.7651 63.9987 17.8624 63.9995 17.9602 63.9995C22.5727 63.9995 26.9632 62.1749 30.3517 58.8425C33.9056 55.3478 35.9437 50.5125 35.9437 45.5769V41.9554H39.0142C40.6362 41.9554 41.9557 40.6358 41.9557 39.0139V24.9858C41.9557 23.3638 40.6361 22.0443 39.0142 22.0443H35.9437V17.9717C35.9437 15.1434 37.1476 12.4253 39.2468 10.5144C41.373 8.57906 44.1279 7.66256 47.003 7.93294C52.1115 8.41381 56.113 12.9652 56.113 18.2946C56.113 18.8123 56.5328 19.2321 57.0505 19.2321C57.5683 19.2321 57.988 18.8123 57.988 18.2946C57.988 15.2711 56.8981 12.3544 54.9193 10.0819C52.9085 7.77293 50.1595 6.34681 47.1787 6.06631C43.7706 5.74556 40.506 6.83281 37.9846 9.12794C35.496 11.3934 34.0686 14.6168 34.0686 17.9717V22.0443H29.9313V18.4228C29.9313 13.9864 31.7653 9.63856 34.9631 6.49406C38.0622 3.44643 42.0876 1.8078 46.3017 1.87742C50.5366 1.9483 54.5116 3.65593 57.4941 6.68568C60.4803 9.71894 62.1246 13.7271 62.1246 17.9718V30.9979C62.1246 31.0335 62.0958 31.0624 62.0601 31.0624H58.0521C58.0165 31.0624 57.9876 31.0335 57.9876 30.9979V22.3555C57.9876 21.8377 57.5679 21.418 57.0501 21.418C56.5324 21.418 56.1126 21.8377 56.1126 22.3555V30.9979C56.1126 32.0674 56.9826 32.9374 58.0521 32.9374H59.1186V38.012C59.1186 38.5297 59.5384 38.9495 60.0561 38.9495C60.5739 38.9495 60.9936 38.5297 60.9936 38.012V32.9374H62.0601C63.1297 32.9374 63.9996 32.0674 63.9996 30.9979V17.9717C64 13.2316 62.1641 8.75644 58.8306 5.37018ZM39.0142 23.9193C39.6022 23.9193 40.0807 24.3978 40.0807 24.9858V39.014C40.0807 39.6021 39.6022 40.0805 39.0142 40.0805H24.9861C24.3979 40.0805 23.9196 39.602 23.9196 39.014V24.9858C23.9196 24.3977 24.3981 23.9193 24.9861 23.9193H39.0142Z" fill="#0F4C81"/>
<path d="M2.77822 22.5626L1.77622 20.5586C1.54472 20.0954 0.981595 19.9076 0.518469 20.1393C0.0553431 20.3708 -0.132407 20.934 0.0992182 21.3971L1.10122 23.4011C1.26547 23.7296 1.59647 23.9195 1.94047 23.9195C2.08135 23.9195 2.22435 23.8876 2.35897 23.8203C2.8221 23.5888 3.00985 23.0257 2.77822 22.5626Z" fill="#0F4C81"/>
<path d="M7.36894 20.1393C6.90581 19.9075 6.34269 20.0955 6.11119 20.5585L5.10919 22.5625C4.87769 23.0256 5.06531 23.5888 5.52844 23.8203C5.66306 23.8876 5.80606 23.9194 5.94694 23.9194C6.29081 23.9194 6.62194 23.7294 6.78619 23.401L7.78819 21.397C8.01982 20.9339 7.83207 20.3708 7.36894 20.1393Z" fill="#0F4C81"/>
<path d="M63.9009 42.6027L62.8989 40.5987C62.6674 40.1356 62.1044 39.9477 61.6411 40.1795C61.178 40.4109 60.9902 40.9741 61.2219 41.4372L62.2239 43.4412C62.3881 43.7697 62.7191 43.9596 63.0631 43.9596C63.204 43.9596 63.347 43.9277 63.4816 43.8605C63.9447 43.629 64.1325 43.0658 63.9009 42.6027Z" fill="#0F4C81"/>
<path d="M58.4715 40.1794C58.0083 39.9476 57.4453 40.1356 57.2137 40.5986L56.2117 42.6026C55.9801 43.0658 56.1678 43.6289 56.631 43.8604C56.7656 43.9278 56.9086 43.9595 57.0495 43.9595C57.3933 43.9595 57.7245 43.7695 57.8887 43.4412L58.8907 41.4371C59.1223 40.974 58.9346 40.4109 58.4715 40.1794Z" fill="#0F4C81"/>
</svg>
