<svg width="64" height="64" viewBox="0 0 64 64" fill="none" xmlns="http://www.w3.org/2000/svg">
<path d="M63 62H48.59L44.43 38C44.4405 37.917 44.4405 37.833 44.43 37.75C44.43 37.75 44.43 37.69 44.43 37.67L42.49 26.83C42.4449 26.5648 42.2963 26.3283 42.0769 26.1727C41.8575 26.017 41.5852 25.9549 41.32 26C41.0548 26.0451 40.8183 26.1937 40.6627 26.4131C40.507 26.6325 40.4449 26.9048 40.49 27.17L41.8 34.74L32.91 24.92L38.91 18.2L39.77 23.2C39.7923 23.3313 39.8403 23.457 39.9112 23.5697C39.9821 23.6825 40.0745 23.7802 40.1831 23.8573C40.2917 23.9344 40.4145 23.9893 40.5444 24.0189C40.6742 24.0486 40.8087 24.0523 40.94 24.03C41.0713 24.0077 41.197 23.9597 41.3097 23.8888C41.4225 23.8179 41.5202 23.7255 41.5973 23.6169C41.6744 23.5083 41.7293 23.3855 41.7589 23.2556C41.7886 23.1258 41.7923 22.9913 41.77 22.86L38.19 2H56V13C56 13.2652 56.1054 13.5196 56.2929 13.7071C56.4804 13.8946 56.7348 14 57 14C57.2652 14 57.5196 13.8946 57.7071 13.7071C57.8946 13.5196 58 13.2652 58 13V1C58 0.734784 57.8946 0.48043 57.7071 0.292893C57.5196 0.105357 57.2652 0 57 0H7C6.73478 0 6.48043 0.105357 6.29289 0.292893C6.10536 0.48043 6 0.734784 6 1V13C6 13.2652 6.10536 13.5196 6.29289 13.7071C6.48043 13.8946 6.73478 14 7 14C7.26522 14 7.51957 13.8946 7.70711 13.7071C7.89464 13.5196 8 13.2652 8 13V2H24.82L14.9 62H1C0.734784 62 0.48043 62.1054 0.292893 62.2929C0.105357 62.4804 0 62.7348 0 63C0 63.2652 0.105357 63.5196 0.292893 63.7071C0.48043 63.8946 0.734784 64 1 64H63C63.2652 64 63.5196 63.8946 63.7071 63.7071C63.8946 63.5196 64 63.2652 64 63C64 62.7348 63.8946 62.4804 63.7071 62.2929C63.5196 62.1054 63.2652 62 63 62ZM20.57 40L30.31 48.66L17.16 60.66L20.57 40ZM46.23 60.09L33.3 48.59L42.74 40L46.23 60.09ZM31.8 47.25L22.51 39H40.85L31.8 47.25ZM31.8 49.94L45.37 62H18.58L31.8 49.94ZM41.18 37H22.12L26 32.67C26.1603 32.4702 26.2379 32.2166 26.2166 31.9613C26.1954 31.706 26.0771 31.4687 25.886 31.2981C25.6949 31.1275 25.4457 31.0368 25.1896 31.0446C24.9336 31.0524 24.6904 31.1581 24.51 31.34L21.42 34.78L24.16 18.21L30.25 24.93L27.25 28.28C27.0897 28.4798 27.0121 28.7334 27.0334 28.9887C27.0546 29.2439 27.1729 29.4813 27.364 29.6519C27.5551 29.8225 27.8043 29.9132 28.0604 29.9054C28.3164 29.8976 28.5596 29.7919 28.74 29.61L31.6 26.42L41.18 37ZM32.87 7.09L36.37 3.2L38 12.77L32.87 7.09ZM37.34 15H25.76L31.52 8.59L37.34 15ZM31.52 5.6L28.26 2H34.76L31.52 5.6ZM30.18 7.1L25.07 12.79L26.65 3.21L30.18 7.1ZM25.77 17H37.36L31.6 23.43L25.77 17Z" fill="#0F4C81"/>
<path d="M5 17H9C9.26522 17 9.51957 16.8946 9.70711 16.7071C9.89464 16.5196 10 16.2652 10 16C10 15.7348 9.89464 15.4804 9.70711 15.2929C9.51957 15.1054 9.26522 15 9 15H5C4.73478 15 4.48043 15.1054 4.29289 15.2929C4.10536 15.4804 4 15.7348 4 16C4 16.2652 4.10536 16.5196 4.29289 16.7071C4.48043 16.8946 4.73478 17 5 17Z" fill="#0F4C81"/>
<path d="M5 20H9C9.26522 20 9.51957 19.8946 9.70711 19.7071C9.89464 19.5196 10 19.2652 10 19C10 18.7348 9.89464 18.4804 9.70711 18.2929C9.51957 18.1054 9.26522 18 9 18H5C4.73478 18 4.48043 18.1054 4.29289 18.2929C4.10536 18.4804 4 18.7348 4 19C4 19.2652 4.10536 19.5196 4.29289 19.7071C4.48043 19.8946 4.73478 20 5 20Z" fill="#0F4C81"/>
<path d="M5 23H9C9.26522 23 9.51957 22.8946 9.70711 22.7071C9.89464 22.5196 10 22.2652 10 22C10 21.7348 9.89464 21.4804 9.70711 21.2929C9.51957 21.1054 9.26522 21 9 21H5C4.73478 21 4.48043 21.1054 4.29289 21.2929C4.10536 21.4804 4 21.7348 4 22C4 22.2652 4.10536 22.5196 4.29289 22.7071C4.48043 22.8946 4.73478 23 5 23Z" fill="#0F4C81"/>
<path d="M59 15H55C54.7348 15 54.4804 15.1054 54.2929 15.2929C54.1054 15.4804 54 15.7348 54 16C54 16.2652 54.1054 16.5196 54.2929 16.7071C54.4804 16.8946 54.7348 17 55 17H59C59.2652 17 59.5196 16.8946 59.7071 16.7071C59.8946 16.5196 60 16.2652 60 16C60 15.7348 59.8946 15.4804 59.7071 15.2929C59.5196 15.1054 59.2652 15 59 15Z" fill="#0F4C81"/>
<path d="M59 18H55C54.7348 18 54.4804 18.1054 54.2929 18.2929C54.1054 18.4804 54 18.7348 54 19C54 19.2652 54.1054 19.5196 54.2929 19.7071C54.4804 19.8946 54.7348 20 55 20H59C59.2652 20 59.5196 19.8946 59.7071 19.7071C59.8946 19.5196 60 19.2652 60 19C60 18.7348 59.8946 18.4804 59.7071 18.2929C59.5196 18.1054 59.2652 18 59 18Z" fill="#0F4C81"/>
<path d="M59 21H55C54.7348 21 54.4804 21.1054 54.2929 21.2929C54.1054 21.4804 54 21.7348 54 22C54 22.2652 54.1054 22.5196 54.2929 22.7071C54.4804 22.8946 54.7348 23 55 23H59C59.2652 23 59.5196 22.8946 59.7071 22.7071C59.8946 22.5196 60 22.2652 60 22C60 21.7348 59.8946 21.4804 59.7071 21.2929C59.5196 21.1054 59.2652 21 59 21Z" fill="#0F4C81"/>
</svg>
