<svg width="56" height="64" viewBox="0 0 56 64" fill="none" xmlns="http://www.w3.org/2000/svg">
<path d="M53.0423 21.0425C52.4542 21.0425 51.9758 20.564 51.9758 19.976V4.94552C51.976 2.21863 49.7573 0 47.0303 0H8.95341C6.2264 0 4.00802 2.21863 4.00802 4.94552V19.9758C4.00802 20.564 3.52951 21.0423 2.94151 21.0423C1.31951 21.0423 0 22.362 0 23.9838C0 25.6057 1.31963 26.9254 2.94151 26.9254C3.52964 26.9254 4.00802 27.4039 4.00802 27.9919V43.0222C4.00802 45.4286 5.73602 47.4381 8.01603 47.8774V61.0585C8.01603 62.6805 9.33566 64 10.9575 64H45.0263C46.6483 64 47.9678 62.6804 47.9678 61.0585V47.8777C50.2478 47.4382 51.9758 45.4288 51.9758 43.0224V27.9921C51.9758 27.404 52.4543 26.9256 53.0423 26.9256C54.6643 26.9256 55.9838 25.606 55.9838 23.9841C55.9841 22.362 54.6645 21.0425 53.0423 21.0425ZM4.00802 25.2515C3.67701 25.1222 3.31764 25.0505 2.94151 25.0505C2.35338 25.0505 1.87501 24.572 1.87501 23.984C1.87501 23.3958 2.35351 22.9175 2.94151 22.9175C3.31764 22.9175 3.67714 22.8457 4.00802 22.7165V25.2515ZM46.0928 61.0587C46.0928 61.6467 45.6143 62.1252 45.0262 62.1252H10.9575C10.3694 62.1252 9.89104 61.6467 9.89104 61.0587V47.9679H12.0242V54.0446C12.0242 55.1141 12.8942 55.9841 13.9637 55.9841H42.0202C43.0897 55.9841 43.9597 55.1141 43.9597 54.0446V47.9679H46.0928V61.0587ZM18.9737 51.976C19.4915 51.976 19.9112 51.5562 19.9112 51.0385V47.9679H24.0483V51.0385C24.0483 51.5562 24.4681 51.976 24.9858 51.976C25.5036 51.976 25.9234 51.5562 25.9234 51.0385V47.9679H30.0605V51.0385C30.0605 51.5562 30.4802 51.976 30.998 51.976C31.5157 51.976 31.9355 51.5562 31.9355 51.0385V47.9679H36.0726V51.0385C36.0726 51.5562 36.4924 51.976 37.0101 51.976C37.5279 51.976 37.9476 51.5562 37.9476 51.0385V47.9679H42.0848V54.0446C42.0848 54.0802 42.0559 54.1091 42.0203 54.1091H13.9636C13.9279 54.1091 13.8991 54.0802 13.8991 54.0446V47.9679H18.0362V51.0385C18.0362 51.5562 18.4559 51.976 18.9737 51.976ZM47.0303 46.0928H8.95341C7.26028 46.0928 5.8829 44.7153 5.8829 43.0223V4.94552C5.88302 3.25251 7.26028 1.87501 8.95341 1.87501H47.0302C48.7233 1.87501 50.1007 3.25251 50.1007 4.94552V43.0223H50.1008C50.1009 44.7154 48.7233 46.0928 47.0303 46.0928ZM53.0423 25.0505C52.6662 25.0505 52.3067 25.1222 51.9758 25.2515V22.7165C52.3067 22.8457 52.6662 22.9175 53.0423 22.9175C53.6305 22.9175 54.1088 23.396 54.1088 23.984C54.1091 24.5721 53.6306 25.0505 53.0423 25.0505Z" fill="#0F4C81"/>
<path d="M40.0163 5.01014H9.95541C9.43766 5.01014 9.01791 5.4299 9.01791 5.94765V42.0204C9.01791 42.5382 9.43766 42.9579 9.95541 42.9579H11.9592C12.4769 42.9579 12.8967 42.5382 12.8967 42.0204C12.8967 41.5027 12.4769 41.0829 11.9592 41.0829H10.8929V6.88515H40.0162C40.5339 6.88515 40.9537 6.4654 40.9537 5.94765C40.9538 5.4299 40.5339 5.01014 40.0163 5.01014Z" fill="#0F4C81"/>
<path d="M46.0283 5.01014H44.0245C43.5068 5.01014 43.087 5.4299 43.087 5.94765C43.087 6.4654 43.5068 6.88515 44.0245 6.88515H45.0908V41.0829H15.9677C15.4499 41.0829 15.0302 41.5027 15.0302 42.0204C15.0302 42.5382 15.4499 42.9579 15.9677 42.9579H46.0283C46.5461 42.9579 46.9658 42.5382 46.9658 42.0204V5.94765C46.9658 5.42977 46.5462 5.01014 46.0283 5.01014Z" fill="#0F4C81"/>
<path d="M39.014 16.0323H16.9697C15.9002 16.0323 15.0302 16.9023 15.0302 17.9718V21.9798C15.0302 23.0493 15.9002 23.9193 16.9697 23.9193H39.014C40.0835 23.9193 40.9535 23.0493 40.9535 21.9798V17.9718C40.9535 16.9023 40.0837 16.0323 39.014 16.0323ZM19.0383 22.0446H16.9698C16.9342 22.0445 16.9053 22.0155 16.9053 21.98V17.9719C16.9053 17.9363 16.9342 17.9074 16.9698 17.9074H19.0383V22.0446ZM23.0465 22.0445H20.9135V17.9073H23.0465V22.0445ZM27.0544 22.0445H24.9213V17.9073H27.0544V22.0445ZM31.0625 22.0445H28.9295V17.9073H31.0625V22.0445ZM35.0704 22.0445H32.9374V17.9073H35.0704V22.0445ZM39.0785 21.98C39.0785 22.0156 39.0497 22.0445 39.014 22.0445H36.9455V17.9073H39.014C39.0497 17.9073 39.0785 17.9362 39.0785 17.9718V21.98Z" fill="#0F4C81"/>
<path d="M17.9717 27.0546C16.3498 27.0546 15.0302 28.3741 15.0302 29.9961C15.0302 31.6181 16.3498 32.9376 17.9717 32.9376C19.5936 32.9376 20.9132 31.618 20.9132 29.9961C20.9133 28.3742 19.5937 27.0546 17.9717 27.0546ZM17.9717 31.0626C17.3837 31.0626 16.9052 30.5841 16.9052 29.9961C16.9052 29.4081 17.3837 28.9296 17.9717 28.9296C18.5597 28.9296 19.0382 29.408 19.0382 29.9961C19.0383 30.5842 18.5598 31.0626 17.9717 31.0626Z" fill="#0F4C81"/>
<path d="M38.012 27.0546C36.39 27.0546 35.0705 28.3742 35.0705 29.9961C35.0705 31.618 36.3901 32.9376 38.012 32.9376C39.6339 32.9376 40.9535 31.618 40.9535 29.9961C40.9537 28.3742 39.6342 27.0546 38.012 27.0546ZM38.012 31.0626C37.4239 31.0626 36.9455 30.5841 36.9455 29.9961C36.9455 29.4081 37.424 28.9296 38.012 28.9296C38.6 28.9296 39.0785 29.4081 39.0785 29.9961C39.0787 30.5841 38.6003 31.0626 38.012 31.0626Z" fill="#0F4C81"/>
<path d="M27.9919 27.0546C26.3699 27.0546 25.0503 28.3741 25.0503 29.9961C25.0503 31.6181 26.37 32.9376 27.9919 32.9376C29.6137 32.9376 30.9334 31.618 30.9334 29.9961C30.9335 28.3742 29.6139 27.0546 27.9919 27.0546ZM27.9919 31.0626C27.4039 31.0626 26.9254 30.5841 26.9254 29.9961C26.9254 29.4081 27.4039 28.9296 27.9919 28.9296C28.5799 28.9296 29.0584 29.408 29.0584 29.9961C29.0585 30.5842 28.58 31.0626 27.9919 31.0626Z" fill="#0F4C81"/>
</svg>
