<svg width="52" height="64" viewBox="0 0 52 64" fill="none" xmlns="http://www.w3.org/2000/svg">
<path d="M26.2068 6.76728C26.6382 6.76728 26.9873 6.41768 26.9873 5.98679V0.780488C26.9873 0.349593 26.6382 0 26.2068 0C25.7759 0 25.4263 0.349593 25.4263 0.780488V5.98679C25.4263 6.41768 25.7759 6.76728 26.2068 6.76728Z" fill="#0F4C81"/>
<path d="M45.1906 26.3694H50.3974C50.8283 26.3694 51.1778 26.0198 51.1778 25.5889C51.1778 25.1575 50.8283 24.8084 50.3974 24.8084H45.1906C44.7597 24.8084 44.4101 25.1575 44.4101 25.5889C44.4101 26.0198 44.7597 26.3694 45.1906 26.3694Z" fill="#0F4C81"/>
<path d="M5.98679 24.8084H0.780488C0.349593 24.8084 0 25.1575 0 25.5889C0 26.0198 0.349593 26.3694 0.780488 26.3694H5.98679C6.41768 26.3694 6.76728 26.0198 6.76728 25.5889C6.76728 25.1575 6.41768 24.8084 5.98679 24.8084Z" fill="#0F4C81"/>
<path d="M44.4451 6.73222C44.1402 6.42734 43.6463 6.42734 43.3415 6.73222L39.279 10.7947C38.9741 11.0996 38.9741 11.594 39.279 11.8989C39.5838 12.2038 40.0777 12.2038 40.3826 11.8989L44.4451 7.83587C44.75 7.5315 44.75 7.03709 44.4451 6.73222Z" fill="#0F4C81"/>
<path d="M11.347 12.1275C11.6626 12.1275 11.9471 11.9369 12.068 11.6453C12.189 11.3536 12.1219 11.0182 11.8988 10.7947L7.83583 6.73217C7.53044 6.43186 7.03959 6.4339 6.73674 6.73674C6.4339 7.03959 6.43186 7.53044 6.73217 7.83583L10.7947 11.8988C10.941 12.0452 11.1397 12.1275 11.347 12.1275Z" fill="#0F4C81"/>
<path d="M25.5888 64C26.0197 64 26.3693 63.6504 26.3693 63.2195V61.6489H30.8089C32.7367 61.6463 34.2992 60.0843 34.3012 58.156V49.3435C34.3251 46.0467 35.7128 42.907 38.1346 40.6702C43.6371 35.5325 45.4588 27.5625 42.7347 20.5447C40.0101 13.5264 33.2885 8.87297 25.7601 8.7937C25.7027 8.79268 25.6447 8.79268 25.5873 8.79268C17.9989 8.79268 11.1884 13.4497 8.43487 20.5213C5.68132 27.5925 7.54971 35.6286 13.1402 40.7602C15.5309 42.9787 16.8851 46.0955 16.8759 49.3567V58.156C16.878 60.0843 18.4405 61.6463 20.3683 61.6489H24.8083V63.2195C24.8083 63.6504 25.1574 64 25.5888 64ZM14.1961 39.6108C9.0802 34.9141 7.37085 27.5595 9.89067 21.0884C12.4105 14.6169 18.6432 10.3552 25.5878 10.3547C25.6396 10.3547 25.6935 10.3547 25.7458 10.3552C32.6397 10.4197 38.7987 14.6778 41.2936 21.1047C43.7885 27.5315 42.1153 34.8298 37.0705 39.5285C34.5299 41.8821 32.9887 45.1204 32.7641 48.5767H18.4135C18.2225 45.1545 16.7108 41.94 14.1961 39.6108ZM18.4369 58.156V57.7708H27.8241C28.255 57.7708 28.6046 57.4212 28.6046 56.9903C28.6046 56.5589 28.255 56.2099 27.8241 56.2099H18.4369V53.8928H20.7733C21.2047 53.8928 21.5538 53.5432 21.5538 53.1123C21.5538 52.6809 21.2047 52.3318 20.7733 52.3318H18.4369V50.1372H32.7403V52.3318H23.5802C23.1493 52.3318 22.7997 52.6809 22.7997 53.1123C22.7997 53.5432 23.1493 53.8928 23.5802 53.8928H32.7403V56.2099H30.631C30.2001 56.2099 29.8505 56.5589 29.8505 56.9903C29.8505 57.4212 30.2001 57.7708 30.631 57.7708H32.7403V58.156C32.7392 59.2226 31.8754 60.0864 30.8089 60.0879H20.3683C19.3023 60.0864 18.4384 59.2226 18.4369 58.156Z" fill="#0F4C81"/>
<path d="M29.088 27.2592C29.4457 27.0021 29.9223 26.9817 30.3004 27.2073C30.6789 27.4335 30.8873 27.8618 30.8314 28.2993C30.775 28.7266 31.0758 29.1184 31.5036 29.1748C31.931 29.2307 32.3227 28.9299 32.3791 28.5026C32.525 27.3918 31.9594 26.3085 30.9645 25.7932C30.8639 25.4482 30.9376 25.0757 31.1622 24.7947C31.4315 24.4589 31.3776 23.9675 31.0417 23.6977C30.7053 23.4279 30.214 23.4817 29.9442 23.8181C29.557 24.2993 29.3512 24.9009 29.3613 25.5183C28.933 25.5762 28.526 25.7393 28.1754 25.9929C27.9462 26.1545 27.8212 26.4268 27.8486 26.7063C27.8761 26.9858 28.0514 27.2287 28.3075 27.3435C28.5641 27.4578 28.8618 27.4253 29.088 27.2592Z" fill="#0F4C81"/>
<path d="M29.4412 20.1484C29.5626 20.1921 29.6876 20.2251 29.8146 20.2475C29.8218 20.3319 29.8334 20.4152 29.8497 20.498C29.8949 20.7226 29.9742 20.9386 30.0845 21.1393C30.2923 21.5168 30.7669 21.6545 31.1444 21.4467C31.522 21.2384 31.6597 20.7638 31.4518 20.3862C31.3456 20.1941 31.338 19.9635 31.43 19.7648C31.522 19.5656 31.7034 19.4228 31.9183 19.3791C32.0194 19.3583 32.1241 19.3608 32.2242 19.3867C32.4945 19.4574 32.7821 19.3776 32.9777 19.1779C33.1734 18.9787 33.2476 18.6896 33.1724 18.4208C33.0967 18.1515 32.8832 17.9431 32.6124 17.8745C31.7262 17.6474 30.7908 17.9807 30.2486 18.7175C30.0489 18.7323 29.8527 18.6581 29.7135 18.5148C29.4117 18.2068 28.9178 18.2013 28.6094 18.5026C28.3014 18.8039 28.2958 19.2983 28.5972 19.6062C28.8339 19.8486 29.1221 20.0341 29.4412 20.1484Z" fill="#0F4C81"/>
<path d="M31.8434 31.4929C31.6199 31.4568 31.407 31.3709 31.2215 31.2409C30.8678 30.9934 30.381 31.0798 30.1341 31.4329C29.8866 31.7861 29.9725 32.2729 30.3262 32.5203C30.8419 32.8806 31.4562 33.0737 32.0853 33.0737C32.2134 33.0732 32.3409 33.065 32.4674 33.0488C32.5538 33.5894 32.783 34.097 33.131 34.5193C33.4054 34.8521 33.8973 34.8994 34.2296 34.625C34.5625 34.3506 34.6097 33.8587 34.3353 33.5264C34.0259 33.1504 33.9166 32.6484 34.0421 32.1773C34.0457 32.1656 34.0492 32.154 34.0523 32.1423C34.1234 31.8994 34.2545 31.6784 34.4334 31.4995C34.7383 31.1951 34.7388 30.7007 34.4344 30.3958C34.1295 30.091 33.6356 30.0904 33.3302 30.3953C33.0442 30.6819 32.817 31.0224 32.6631 31.3968C32.4039 31.5046 32.1204 31.5376 31.8434 31.4929Z" fill="#0F4C81"/>
<path d="M29.5889 39.0081C30.408 39.0071 31.2038 38.7353 31.8521 38.2348C33.001 38.8023 34.3618 38.7358 35.4497 38.0595C36.5381 37.3826 37.1992 36.1921 37.1987 34.9106V34.0391C38.6337 33.4217 39.6662 32.1286 39.9497 30.592C40.2338 29.0559 39.7322 27.4792 38.6128 26.3897C39.3059 25.6184 39.6291 24.5838 39.498 23.5549C39.3674 22.5264 38.7952 21.6052 37.9309 21.0325C37.8476 20.9776 37.7627 20.9268 37.6758 20.8791C38.0051 19.3598 37.559 17.7764 36.4858 16.6524C35.4121 15.5279 33.8511 15.0097 32.3186 15.2683C32.3186 15.2464 32.3206 15.2246 32.3206 15.2033C32.3206 13.4248 30.8791 11.9837 29.1011 11.9837C27.3232 11.9837 25.8816 13.4248 25.8816 15.2033V35.3008C25.8836 37.3471 27.5422 39.0056 29.5889 39.0081ZM27.4426 15.2033C27.4395 14.5173 27.8593 13.9009 28.498 13.6514C29.1367 13.4019 29.8633 13.5716 30.3257 14.0777C30.7881 14.5843 30.8913 15.3227 30.5854 15.9365C30.4954 15.9939 30.4075 16.0534 30.3211 16.1174C29.9741 16.3735 29.9009 16.8623 30.157 17.2088C30.4131 17.5554 30.9014 17.6291 31.2485 17.373C32.4385 16.4964 34.0798 16.5742 35.1814 17.5595C36.2836 18.5442 36.5437 20.1667 35.8054 21.4472C35.7886 21.4766 35.7739 21.5076 35.7607 21.5391C35.6464 21.2154 35.3333 21.0046 34.9904 21.0198C34.6474 21.0356 34.3547 21.2729 34.2693 21.6057C34.1321 22.1448 34.1997 22.7154 34.4589 23.2078C34.4243 23.2962 34.3715 23.376 34.3044 23.4426C34 23.7449 33.9959 24.2358 34.2957 24.5422C34.5955 24.8491 35.0864 24.8562 35.3953 24.5589C35.4924 24.4644 35.5803 24.3613 35.6586 24.251C35.7058 24.2602 35.7541 24.2652 35.8024 24.2652C36.1662 24.2658 36.4817 24.0147 36.5635 23.6606C36.6453 23.3064 36.4716 22.9421 36.1448 22.783C35.9009 22.6626 35.751 22.4106 35.7617 22.1392C35.8664 22.3902 36.094 22.5686 36.3628 22.6098C36.6311 22.6509 36.9019 22.5488 37.0767 22.3404C37.5889 22.6839 37.9147 23.2439 37.9599 23.8587C38.0051 24.4736 37.7653 25.0752 37.309 25.4903C36.6936 25.2043 36.0234 25.0564 35.3445 25.0569C34.9136 25.0569 34.564 25.4065 34.564 25.8374C34.564 26.2683 34.9136 26.6179 35.3445 26.6179C37.0691 26.6179 38.4665 28.0158 38.4665 29.7398C38.4665 31.4639 37.0691 32.8618 35.3445 32.8618C34.9136 32.8618 34.564 33.2114 34.564 33.6423C34.564 34.0732 34.9136 34.4228 35.3445 34.4228C35.4431 34.4228 35.5396 34.4187 35.6372 34.4126V34.9106C35.6372 36.096 34.6763 37.0569 33.4909 37.0569C32.3054 37.0569 31.3445 36.096 31.3445 34.9106C31.3445 34.4797 30.9954 34.1301 30.564 34.1301C30.1331 34.1301 29.7835 34.4797 29.7835 34.9106C29.783 35.7419 30.0635 36.5493 30.5793 37.2012C29.9146 37.5503 29.1159 37.5264 28.4736 37.1372C27.8318 36.7485 27.44 36.0513 27.4421 35.3008L27.4426 15.2033Z" fill="#0F4C81"/>
<path d="M19.3253 38.2348C20.4437 39.0991 21.9564 39.2515 23.2247 38.628C24.493 38.0046 25.2968 36.7139 25.2958 35.3008V15.2033C25.2958 13.4253 23.8548 11.9837 22.0763 11.9837C20.2984 11.9837 18.8568 13.4253 18.8568 15.2033C18.8568 15.2251 18.8588 15.247 18.8588 15.2683C18.6002 15.2251 18.3385 15.2033 18.0763 15.2033C16.6597 15.2012 15.3182 15.8415 14.429 16.9446C13.5397 18.0483 13.1988 19.4949 13.5016 20.8791C13.4152 20.9273 13.3299 20.9776 13.2471 21.033C12.3822 21.6057 11.8101 22.5264 11.679 23.5554C11.5484 24.5838 11.8715 25.6189 12.5651 26.3897C11.4452 27.4797 10.9437 29.0564 11.2277 30.5925C11.5113 32.1291 12.5438 33.4217 13.9788 34.0396V34.9111C13.9783 36.1926 14.6393 37.3831 15.7277 38.06C16.8157 38.7363 18.1764 38.8023 19.3253 38.2348ZM15.5397 34.9106V34.4126C15.6368 34.4187 15.7344 34.4228 15.8324 34.4228C16.2638 34.4228 16.6129 34.0732 16.6129 33.6423C16.6129 33.2114 16.2638 32.8618 15.8324 32.8618C14.1083 32.8618 12.7105 31.4639 12.7105 29.7398C12.7105 28.0158 14.1083 26.6179 15.8324 26.6179C16.2638 26.6179 16.6129 26.2683 16.6129 25.8374C16.6129 25.4065 16.2638 25.0569 15.8324 25.0569C15.1541 25.0564 14.4838 25.2043 13.8685 25.4903C13.4122 25.0752 13.1719 24.4736 13.2171 23.8587C13.2628 23.2439 13.5885 22.6839 14.1007 22.3404C14.275 22.5488 14.5458 22.6509 14.8146 22.6098C15.0834 22.5686 15.3111 22.3902 15.4152 22.1392C15.4259 22.4106 15.276 22.6626 15.0326 22.783C14.7054 22.9421 14.5316 23.3064 14.6134 23.6606C14.6957 24.0147 15.0113 24.2658 15.3751 24.2652C15.4229 24.2647 15.4706 24.2602 15.5179 24.251C15.5961 24.3613 15.6846 24.4644 15.7811 24.5589C16.0895 24.8608 16.5839 24.8552 16.8853 24.5467C17.1871 24.2388 17.1815 23.7444 16.8736 23.4426C16.806 23.376 16.7537 23.2962 16.7186 23.2078C16.9777 22.7154 17.0458 22.1448 16.9086 21.6057C16.8233 21.2729 16.5306 21.0356 16.1876 21.0198C15.8441 21.0046 15.5316 21.2154 15.4168 21.5391C15.4041 21.5076 15.3888 21.4766 15.3721 21.4472C14.6322 20.1667 14.8919 18.5427 15.994 17.5569C17.0966 16.5716 18.7394 16.4944 19.9295 17.373C20.276 17.6291 20.7648 17.5554 21.0209 17.2088C21.277 16.8623 21.2034 16.3735 20.8568 16.1174C20.7704 16.0534 20.682 15.9939 20.5926 15.9365C20.2892 15.3237 20.3939 14.5874 20.8558 14.0828C21.3177 13.5783 22.0418 13.4096 22.679 13.6575C23.3162 13.9055 23.7359 14.5193 23.7354 15.2033V35.3008C23.7374 36.0513 23.3456 36.7485 22.7039 37.1372C22.0616 37.5264 21.2628 37.5503 20.5982 37.2012C21.1139 36.5493 21.3944 35.7419 21.3939 34.9106C21.3939 34.4797 21.0443 34.1301 20.6134 34.1301C20.182 34.1301 19.8329 34.4797 19.8329 34.9106C19.8329 36.096 18.8721 37.0569 17.6866 37.0569C16.5011 37.0569 15.5397 36.096 15.5397 34.9106Z" fill="#0F4C81"/>
<path d="M21.8155 25.5183C21.819 25.3064 21.7972 25.095 21.7504 24.8887C21.6615 24.497 21.4847 24.1311 21.2331 23.8181C20.9633 23.4817 20.472 23.4279 20.1356 23.6977C19.7997 23.9675 19.7453 24.4589 20.0152 24.7947C20.2398 25.0757 20.3134 25.4482 20.2128 25.7932C19.2179 26.3085 18.6529 27.3918 18.7987 28.5026C18.8546 28.9299 19.2469 29.2307 19.6742 29.1748C20.1015 29.1184 20.4029 28.7266 20.3465 28.2993C20.3246 28.1342 20.3409 27.967 20.3937 27.809C20.5045 27.4751 20.7677 27.2134 21.1026 27.1052C21.4374 26.9965 21.8043 27.0539 22.0899 27.2592C22.316 27.4253 22.6142 27.4578 22.8703 27.3435C23.1269 27.2287 23.3022 26.9858 23.3292 26.7063C23.3566 26.4268 23.2316 26.1545 23.0025 25.9929C22.6524 25.7393 22.2448 25.5762 21.8165 25.5183H21.8155Z" fill="#0F4C81"/>
<path d="M18.9538 19.3867C19.183 19.3283 19.4259 19.3918 19.5976 19.5549C19.7688 19.718 19.8445 19.9574 19.7978 20.1891C19.7841 20.2582 19.7602 20.3247 19.7262 20.3862C19.5183 20.7638 19.6555 21.2384 20.0331 21.4467C20.4106 21.6545 20.8852 21.5168 21.0935 21.1393C21.2038 20.9386 21.2831 20.7226 21.3283 20.498C21.3445 20.4152 21.3562 20.3319 21.3633 20.2475C21.4904 20.2251 21.6154 20.1921 21.7368 20.1484C22.0554 20.0341 22.344 19.8486 22.5803 19.6062C22.8816 19.2983 22.8766 18.8039 22.5681 18.5026C22.2602 18.2013 21.7658 18.2068 21.4645 18.5148C21.3247 18.6581 21.1286 18.7323 20.9294 18.7175C20.3867 17.9807 19.4518 17.6474 18.5656 17.8745C18.2948 17.9431 18.0808 18.1515 18.0056 18.4208C17.9299 18.6896 18.0041 18.9787 18.2002 19.1779C18.3959 19.3776 18.683 19.4574 18.9538 19.3867Z" fill="#0F4C81"/>
<path d="M18.0473 34.5193C18.3953 34.0965 18.624 33.5889 18.7104 33.0483C19.001 33.0864 19.2952 33.0813 19.5843 33.034C20.0401 32.9609 20.4741 32.7856 20.8521 32.5198C21.2053 32.2729 21.2912 31.7861 21.0437 31.4329C20.7967 31.0798 20.31 30.9939 19.9568 31.2414C19.5346 31.5361 18.9909 31.5945 18.5158 31.3963C18.3618 31.0219 18.1347 30.6814 17.8481 30.3948C17.5432 30.0904 17.0488 30.0904 16.7444 30.3958C16.4395 30.7007 16.44 31.1946 16.7449 31.4995C16.9243 31.6784 17.0554 31.8994 17.1265 32.1423C17.1296 32.154 17.1326 32.1656 17.1362 32.1773C17.2617 32.6479 17.1524 33.1499 16.8435 33.5259C16.5691 33.8587 16.6164 34.3506 16.9487 34.625C17.2815 34.8989 17.7729 34.8516 18.0473 34.5193Z" fill="#0F4C81"/>
</svg>
