<svg width="49" height="49" viewBox="0 0 49 49" fill="none" xmlns="http://www.w3.org/2000/svg">
<path fill-rule="evenodd" clip-rule="evenodd" d="M32.2681 0.900024H17.5327C4.08458 0.900024 0.900391 4.08422 0.900391 17.5323V32.2677C0.900391 45.7158 4.08458 48.9 17.5327 48.9H32.2681C45.7162 48.9 48.9004 45.7158 48.9004 32.2677V17.5323C48.9004 4.08422 45.7162 0.900024 32.2681 0.900024ZM39.1446 16.1435C40.1947 16.1435 40.4318 16.6855 40.1947 17.4307C39.8246 19.1387 36.7516 23.6692 35.7998 25.0725C35.6189 25.3391 35.5146 25.4928 35.52 25.4928C35.1474 26.1026 35.0119 26.3736 35.52 27.051C35.7037 27.3015 36.0932 27.6837 36.5384 28.1205C36.9962 28.5698 37.5129 29.0768 37.9251 29.5577C39.4156 31.2515 40.5673 32.6742 40.8722 33.6565C41.1432 34.6389 40.6689 35.147 39.6527 35.147H36.1637C35.239 35.147 34.7624 34.616 33.7466 33.4843C33.3111 32.9991 32.7764 32.4034 32.0649 31.6918C29.9985 29.6932 29.0839 29.4223 28.5758 29.4223C27.8644 29.4223 27.6612 29.5916 27.6612 30.6079V33.7582C27.6612 34.605 27.3902 35.1131 25.1545 35.1131C21.4622 35.1131 17.3634 32.8774 14.484 28.7109C10.1481 22.6135 8.96252 18.0066 8.96252 17.092C8.96252 16.5839 9.1319 16.1096 10.1481 16.1096H13.6711C14.5518 16.1096 14.8905 16.4822 15.2293 17.4646C16.9569 22.4441 19.8362 26.8139 21.0218 26.8139C21.4622 26.8139 21.6654 26.6107 21.6654 25.4928V20.3439C21.5818 18.8804 21.0723 18.2427 20.6945 17.7699C20.4602 17.4766 20.2766 17.2468 20.2766 16.9226C20.2766 16.5161 20.6153 16.1096 21.1573 16.1096H26.645C27.3902 16.1096 27.6612 16.5161 27.6612 17.3968V24.3411C27.6612 25.0863 27.9661 25.3573 28.2032 25.3573C28.6435 25.3573 29.0162 25.0863 29.8291 24.2733C32.3358 21.4618 34.1312 17.1259 34.1312 17.1259C34.3683 16.6177 34.7748 16.1435 35.6555 16.1435H39.1446Z" fill="#0F4C81"/>
</svg>
